<svg width="121" height="38" viewBox="0 0 121 38" fill="none" xmlns="http://www.w3.org/2000/svg">
<path d="M28.6 30.04V0.759999H37.8V37.24H20V30.04H28.6ZM12.4 18.44C10.6933 18.44 9.12 18.28 7.68 17.96C6.24 17.64 4.98667 17.1333 3.92 16.44C2.88 15.72 2.06667 14.8 1.48 13.68C0.893333 12.56 0.6 11.2 0.6 9.6C0.6 8 0.893333 6.64 1.48 5.52C2.06667 4.4 2.88 3.49333 3.92 2.8C4.98667 2.08 6.24 1.56 7.68 1.24C9.12 0.919999 10.6933 0.759999 12.4 0.759999H14.88C16.5867 0.759999 18.16 0.919999 19.6 1.24C21.04 1.56 22.28 2.08 23.32 2.8C24.3867 3.49333 25.2133 4.4 25.8 5.52C26.3867 6.64 26.68 8 26.68 9.6C26.68 11.2 26.3867 12.56 25.8 13.68C25.2133 14.8 24.3867 15.72 23.32 16.44C22.28 17.1333 21.04 17.64 19.6 17.96C18.16 18.28 16.5867 18.44 14.88 18.44H12.4ZM1.4 20.44H26.28V28.04H17.6V37.24H8.4V28.04H1.4V20.44ZM9.84 9.6C9.84 10.2133 10.0533 10.64 10.48 10.88C10.9333 11.12 11.5067 11.24 12.2 11.24H15.08C15.7733 11.24 16.3333 11.12 16.76 10.88C17.2133 10.64 17.44 10.2133 17.44 9.6C17.44 8.98667 17.2133 8.56 16.76 8.32C16.3333 8.08 15.7733 7.96 15.08 7.96H12.2C11.5067 7.96 10.9333 8.08 10.48 8.32C10.0533 8.56 9.84 8.98667 9.84 9.6ZM66.2816 29.64V37.24H52.2016C50.8682 37.24 49.6549 37.0267 48.5616 36.6C47.4949 36.1733 46.5749 35.5733 45.8016 34.8C45.0549 34.0533 44.4682 33.1333 44.0416 32.04C43.6149 30.9733 43.4016 29.7733 43.4016 28.44V0.759999H65.8816V8.36H52.6016V14.92H63.0816V22.28H52.6016V27.24C52.6016 27.96 52.8149 28.5467 53.2416 29C53.6949 29.4267 54.2816 29.64 55.0016 29.64H66.2816ZM70.2016 14.92V0.759999H79.4016V37.24H70.2016V22.28H65.0016V14.92H70.2016ZM111.803 0.759999H121.003V37.24H93.9631C92.4965 37.24 91.1631 36.9733 89.9631 36.44C88.7631 35.9333 87.7365 35.2 86.8831 34.24C86.0298 33.28 85.3631 32.1333 84.8831 30.8C84.4298 29.44 84.2031 27.9333 84.2031 26.28C84.2031 24.6267 84.4298 23.1333 84.8831 21.8C85.3631 20.44 86.0298 19.28 86.8831 18.32C87.7365 17.36 88.7631 16.6267 89.9631 16.12C91.1631 15.5867 92.4965 15.32 93.9631 15.32H95.4431C96.5365 15.32 97.4031 15.0267 98.0431 14.44C98.7098 13.8267 99.0431 13.0133 99.0431 12C99.0431 10.88 98.7098 10 98.0431 9.36C97.4031 8.69333 96.5365 8.36 95.4431 8.36H85.0031V0.759999H99.6431C100.923 0.759999 102.096 1.02667 103.163 1.56C104.23 2.06667 105.136 2.8 105.883 3.76C106.63 4.72 107.203 5.88 107.603 7.24C108.03 8.57333 108.243 10.0667 108.243 11.72C108.243 13.3733 108.03 14.88 107.603 16.24C107.203 17.5733 106.63 18.72 105.883 19.68C105.136 20.64 104.23 21.3867 103.163 21.92C102.096 22.4267 100.923 22.68 99.6431 22.68H97.0031C95.9098 22.68 95.0298 23 94.3631 23.64C93.7231 24.28 93.4031 25.12 93.4031 26.16C93.4031 27.2 93.7231 28.04 94.3631 28.68C95.0298 29.32 95.9098 29.64 97.0031 29.64H111.803V0.759999Z" fill="#146DB6"/>
</svg>
